<?xml version="1.0" encoding="UTF-8"?>
<svg xmlns="http://www.w3.org/2000/svg" version="1.2" baseProfile="tiny-ps" viewBox="0 0 1200 1200" width="1200" height="1200">
<title>BookAce</title>
<rect width="1200" height="1200" fill="#000000"/>
<g transform="translate(0.000000,1200.000000) scale(0.100000,-0.100000)" fill="#c9a227">
<path d="M5992 9928 c-7 -7 -12 -19 -12 -27 0 -9 -14 -68 -30 -131 -17 -63
-32 -122 -34 -130 -9 -36 -45 -138 -54 -156 -9 -17 -45 -110 -47 -124 -2 -11
-117 -237 -143 -281 -50 -87 -124 -204 -161 -256 -85 -120 -173 -241 -203
-280 -18 -23 -52 -65 -74 -95 -41 -53 -136 -159 -264 -293 -80 -85 -396 -385
-464 -440 -27 -22 -70 -58 -95 -81 -25 -22 -74 -61 -107 -87 -34 -26 -86 -68
-115 -95 -30 -26 -70 -59 -89 -74 -19 -14 -105 -91 -190 -170 -401 -370 -563
-559 -805 -938 -60 -94 -133 -255 -185 -410 -58 -172 -67 -206 -80 -297 -5
-37 -14 -93 -20 -123 -13 -70 -13 -357 0 -435 6 -33 14 -91 19 -130 13 -96 39
-186 89 -308 7 -15 15 -39 18 -53 17 -67 169 -329 214 -369 13 -11 30 -32 39
-47 42 -67 228 -242 346 -325 96 -67 251 -134 400 -172 79 -20 300 -45 327
-37 7 2 58 7 112 10 265 15 587 131 851 308 62 42 144 111 216 183 l117 116
88 -3 89 -3 3 -61 c4 -83 -30 -433 -49 -508 -6 -22 -14 -63 -19 -91 -23 -137
-112 -443 -151 -518 -10 -22 -19 -44 -19 -51 0 -22 -47 -111 -70 -131 -12 -11
-57 -63 -99 -115 -87 -108 -469 -493 -560 -565 -62 -49 -70 -62 -49 -83 19
-19 2541 -17 2557 2 11 13 5 46 -8 46 -4 0 -23 15 -43 33 -21 19 -59 51 -85
73 -114 92 -432 430 -589 624 -38 47 -74 118 -76 150 0 3 -7 21 -15 40 -8 19
-26 71 -40 115 -13 44 -30 94 -36 110 -7 17 -12 37 -12 45 -1 15 -28 128 -45
185 -5 17 -17 75 -26 130 -9 55 -20 120 -25 145 -4 25 -11 129 -15 233 l-7
187 92 0 92 0 82 -86 c111 -117 226 -204 362 -274 39 -20 81 -43 95 -52 14 -9
63 -30 110 -48 47 -18 94 -36 105 -41 76 -34 237 -74 360 -89 86 -11 342 -11
410 1 75 12 179 39 189 50 6 5 17 9 25 9 29 0 189 77 263 126 166 109 330 273
443 446 25 36 49 69 55 73 5 3 10 15 10 25 0 10 4 20 9 22 31 11 182 401 197
508 3 25 10 59 15 75 30 103 30 519 -1 620 -5 17 -12 50 -15 75 -11 74 -83
304 -122 390 -49 109 -108 228 -123 250 -10 14 -56 84 -103 155 -90 136 -134
195 -257 341 -98 116 -357 380 -461 469 -45 39 -107 93 -138 121 -31 29 -84
74 -118 100 -506 401 -989 884 -1238 1239 -19 28 -50 71 -67 96 -92 131 -167
248 -203 319 -15 30 -36 67 -46 82 -11 14 -19 29 -19 33 0 4 -19 48 -43 98
-38 79 -69 156 -97 232 -4 11 -17 54 -30 95 -13 41 -27 84 -31 95 -4 11 -15
58 -23 104 -17 90 -33 120 -54 99z"/>
</g>
</svg>
